# WaveFront *.obj file (generated by Autodesk ATF)

mtllib 1edificio.mtl

g Sólido5

v 180.000000 0.000000 200.000000
v 180.000000 0.000000 237.000000
v 180.000000 0.000000 243.000000
v 180.000000 0.000000 280.000000
v 180.000000 4.000000 237.000000
v 180.000000 4.000000 243.000000
v 180.000000 18.000000 200.000000
v 180.000000 18.000000 280.000000
v 192.000000 0.000000 200.000000
v 192.000000 0.000000 237.000000
v 192.000000 0.000000 243.000000
v 192.000000 0.000000 280.000000
v 192.000000 4.000000 237.000000
v 192.000000 4.000000 243.000000
v 192.000000 18.000000 200.000000
v 192.000000 18.000000 280.000000
vt -0.000000 1200.000000 0.000000
vt -400.000000 1200.000000 0.000000
vt -400.000000 0.000000 0.000000
vt -0.000000 0.000000 0.000000
vt -0.000000 1200.000000 0.000000
vt -600.000000 1200.000000 0.000000
vt -600.000000 0.000000 0.000000
vt -0.000000 0.000000 0.000000
vt -0.000000 1200.000000 0.000000
vt -400.000000 1200.000000 0.000000
vt -400.000000 0.000000 0.000000
vt -0.000000 0.000000 0.000000
vt 3700.000000 0.000000 0.000000
vt 3700.000000 400.000000 0.000000
vt 4300.000000 400.000000 0.000000
vt 4300.000000 0.000000 0.000000
vt 8000.000000 0.000000 0.000000
vt 8000.000000 1800.000000 0.000000
vt 0.000000 1800.000000 0.000000
vt 0.000000 0.000000 0.000000
vt 300.000000 600.000000 0.000000
vt 300.000000 -600.000000 0.000000
vt 4000.000000 -600.000000 0.000000
vt 4000.000000 600.000000 0.000000
vt 0.000000 0.000000 0.000000
vt 1200.000000 0.000000 0.000000
vt 1200.000000 1800.000000 0.000000
vt 0.000000 1800.000000 0.000000
vt 0.000000 0.000000 0.000000
vt 1200.000000 0.000000 0.000000
vt 1200.000000 1800.000000 0.000000
vt 0.000000 1800.000000 0.000000
vt 4300.000000 400.000000 0.000000
vt 4300.000000 0.000000 0.000000
vt 8000.000000 0.000000 0.000000
vt 8000.000000 1800.000000 0.000000
vt 0.000000 1800.000000 0.000000
vt 0.000000 0.000000 0.000000
vt 3700.000000 0.000000 0.000000
vt 3700.000000 400.000000 0.000000
vt -4000.000000 -600.000000 0.000000
vt 4000.000000 -600.000000 0.000000
vt 4000.000000 600.000000 0.000000
vt -4000.000000 600.000000 0.000000
vt -300.000000 -600.000000 0.000000
vt -300.000000 600.000000 0.000000
vt -4000.000000 600.000000 0.000000
vt -4000.000000 -600.000000 0.000000
vn 0.000000 0.000000 100.000000
vn 0.000000 0.000000 100.000000
vn 0.000000 0.000000 100.000000
vn 0.000000 0.000000 100.000000
vn 0.000000 -100.000000 0.000000
vn 0.000000 -100.000000 0.000000
vn 0.000000 -100.000000 0.000000
vn 0.000000 -100.000000 0.000000
vn 0.000000 0.000000 -100.000000
vn 0.000000 0.000000 -100.000000
vn 0.000000 0.000000 -100.000000
vn 0.000000 0.000000 -100.000000
vn 100.000000 0.000000 0.000000
vn 100.000000 0.000000 0.000000
vn 100.000000 0.000000 0.000000
vn 100.000000 0.000000 0.000000
vn 100.000000 0.000000 0.000000
vn 100.000000 0.000000 0.000000
vn 100.000000 0.000000 0.000000
vn 100.000000 0.000000 0.000000
vn 0.000000 -100.000000 0.000000
vn 0.000000 -100.000000 0.000000
vn 0.000000 -100.000000 0.000000
vn 0.000000 -100.000000 0.000000
vn 0.000000 0.000000 -100.000000
vn 0.000000 0.000000 -100.000000
vn 0.000000 0.000000 -100.000000
vn 0.000000 0.000000 -100.000000
vn 0.000000 0.000000 100.000000
vn 0.000000 0.000000 100.000000
vn 0.000000 0.000000 100.000000
vn 0.000000 0.000000 100.000000
vn -100.000000 0.000000 0.000000
vn -100.000000 0.000000 0.000000
vn -100.000000 0.000000 0.000000
vn -100.000000 0.000000 0.000000
vn -100.000000 0.000000 0.000000
vn -100.000000 0.000000 0.000000
vn -100.000000 0.000000 0.000000
vn -100.000000 0.000000 0.000000
vn 0.000000 100.000000 0.000000
vn 0.000000 100.000000 0.000000
vn 0.000000 100.000000 0.000000
vn 0.000000 100.000000 0.000000
vn 0.000000 -100.000000 0.000000
vn 0.000000 -100.000000 0.000000
vn 0.000000 -100.000000 0.000000
vn 0.000000 -100.000000 0.000000
usemtl 191,191,191
f 5/1/1 2/2/2 13/4/4
f 13/4/4 2/2/2 10/3/3
f 6/5/5 5/6/6 14/8/8
f 14/8/8 5/6/6 13/7/7
f 3/9/9 6/10/10 11/12/12
f 11/12/12 6/10/10 14/11/11
f 11/13/13 14/14/14 12/20/20
f 12/20/20 14/14/14 16/19/19
f 16/19/19 14/14/14 13/15/15
f 16/19/19 13/15/15 15/18/18
f 15/18/18 13/15/15 9/17/17
f 9/17/17 13/15/15 10/16/16
f 2/22/22 1/23/23 10/21/21
f 10/21/21 1/23/23 9/24/24
f 9/25/25 1/26/26 15/28/28
f 15/28/28 1/26/26 7/27/27
f 4/29/29 12/30/30 8/32/32
f 8/32/32 12/30/30 16/31/31
f 3/34/34 4/35/35 6/33/33
f 6/33/33 4/35/35 8/36/36
f 6/33/33 8/36/36 7/37/37
f 6/33/33 7/37/37 5/40/40
f 5/40/40 7/37/37 1/38/38
f 5/40/40 1/38/38 2/39/39
f 7/41/41 8/42/42 15/44/44
f 15/44/44 8/42/42 16/43/43
f 11/46/46 12/47/47 3/45/45
f 3/45/45 12/47/47 4/48/48

# 16 vertices
# 48 texture params
# 48 normals
# 28 facets

# 1 groups
